<?xml version="1.0" standalone="no"?>
<!DOCTYPE svg PUBLIC "-//W3C//DTD SVG 20010904//EN"
 "http://www.w3.org/TR/2001/REC-SVG-20010904/DTD/svg10.dtd">
<svg version="1.0" xmlns="http://www.w3.org/2000/svg"
 width="512.000000pt" height="512.000000pt" viewBox="0 0 512.000000 512.000000"
 preserveAspectRatio="xMidYMid meet">

<g transform="translate(0.000000,512.000000) scale(0.100000,-0.100000)"
fill="#000000" stroke="none">
<path d="M1649 5102 c-105 -35 -182 -103 -226 -199 l-24 -52 -45 29 c-172 109
-429 36 -520 -148 -16 -31 -30 -59 -31 -61 -1 -2 -21 13 -44 33 -60 51 -138
78 -229 80 -128 2 -233 -50 -311 -154 -48 -64 -69 -132 -69 -227 0 -86 21
-150 74 -222 l37 -50 -62 -32 c-74 -40 -141 -114 -171 -189 -17 -42 -22 -76
-22 -145 -1 -159 -14 -141 511 -666 l455 -457 -98 -4 c-82 -3 -109 -9 -156
-32 -78 -37 -143 -103 -181 -184 -29 -61 -32 -76 -32 -162 0 -86 3 -101 31
-160 17 -36 47 -81 67 -102 39 -39 653 -456 784 -532 167 -97 387 -166 594
-185 63 -6 204 -11 314 -11 l200 0 620 -621 c341 -341 632 -627 647 -635 44
-23 77 -17 114 20 43 43 44 79 5 132 -16 21 -314 323 -662 671 l-634 631 -315
5 c-271 4 -329 8 -412 26 -115 25 -216 60 -313 109 -75 37 -741 477 -789 521
-72 66 -76 182 -8 254 39 42 75 57 132 57 58 0 83 -11 238 -107 175 -108 213
-119 280 -76 55 35 78 123 48 181 -8 15 -283 295 -611 622 -404 403 -603 608
-616 635 -24 53 -24 99 2 153 37 75 120 113 201 92 38 -10 96 -65 529 -496
l485 -484 46 0 c64 0 98 34 98 99 l0 46 -604 605 c-332 333 -609 615 -615 627
-20 39 -14 126 12 164 47 70 121 99 198 79 40 -10 103 -70 654 -621 551 -549
614 -609 642 -609 18 0 43 5 57 11 32 15 60 72 51 107 -4 18 -176 198 -490
512 -527 528 -504 501 -493 605 14 121 162 187 266 118 22 -16 202 -192 400
-393 450 -457 559 -559 606 -567 31 -5 40 -1 71 30 38 38 44 71 21 115 -8 15
-177 189 -376 387 -199 198 -368 373 -377 389 -21 40 -20 113 2 159 22 47 79
87 133 94 81 11 100 -3 368 -268 251 -250 258 -255 319 -250 34 3 75 57 75 98
0 35 -14 51 -257 296 -298 298 -323 316 -459 323 -59 3 -93 0 -135 -14z"/>
<path d="M2619 4281 c-78 -79 8 -205 108 -157 65 31 76 114 21 161 -42 35 -91
34 -129 -4z"/>
<path d="M2921 4017 c-31 -19 -50 -54 -51 -96 0 -30 18 -52 183 -220 235 -239
317 -360 387 -569 53 -162 61 -219 67 -482 l5 -245 591 -593 c571 -571 594
-592 629 -592 57 0 103 45 103 99 0 41 -2 43 -562 604 l-561 562 -5 205 c-7
291 -43 457 -143 666 -79 167 -152 263 -358 472 -162 164 -196 193 -226 197
-20 3 -45 -1 -59 -8z"/>
<path d="M2647 3456 c-175 -49 -269 -246 -194 -409 32 -71 66 -108 129 -142
48 -27 62 -30 143 -30 74 0 97 4 132 23 60 32 112 87 140 149 33 72 30 183 -7
256 -62 123 -212 190 -343 153z m118 -200 c63 -27 76 -106 26 -157 -40 -39
-89 -40 -132 -1 -52 47 -40 130 24 157 40 18 41 18 82 1z"/>
<path d="M1948 2975 c-57 -32 -66 -108 -19 -156 71 -70 192 2 161 96 -6 18
-19 40 -29 49 -26 24 -81 29 -113 11z"/>
<path d="M3054 2460 c-55 -22 -72 -108 -31 -155 14 -17 36 -28 63 -32 36 -5
46 -1 75 25 28 25 34 37 34 72 0 72 -72 118 -141 90z"/>
<path d="M2023 2340 c-34 -17 -74 -46 -89 -63 -99 -117 -100 -290 -3 -401 138
-157 395 -125 489 61 37 73 40 184 8 255 -54 116 -133 169 -263 176 -74 3 -85
1 -142 -28z m196 -196 c25 -21 31 -33 31 -66 0 -53 -14 -77 -57 -94 -69 -29
-133 14 -133 90 0 86 92 127 159 70z"/>
<path d="M3635 1791 c-79 -21 -154 -81 -193 -155 -23 -44 -27 -63 -27 -136 0
-73 4 -92 27 -136 30 -57 77 -103 141 -136 33 -18 58 -23 122 -23 95 0 152 22
212 82 61 61 87 124 87 213 0 59 -6 86 -24 125 -31 63 -89 121 -148 147 -50
22 -149 32 -197 19z m137 -220 c27 -24 33 -36 33 -71 0 -35 -6 -47 -33 -71
-36 -32 -69 -36 -112 -14 -35 18 -50 43 -50 85 0 41 14 66 48 84 42 23 78 19
114 -13z"/>
<path d="M2924 1731 c-30 -13 -64 -59 -64 -88 0 -32 26 -80 49 -93 25 -13 77
-13 102 0 24 13 49 61 49 94 0 56 -83 109 -136 87z"/>
<path d="M4983 1125 c-99 -43 -71 -185 36 -185 48 0 88 30 96 73 15 80 -59
144 -132 112z"/>
<path d="M3834 870 c-55 -22 -72 -108 -31 -155 48 -56 133 -40 163 31 12 29
12 39 0 68 -24 57 -75 79 -132 56z"/>
<path d="M4460 591 c-216 -71 -292 -322 -148 -486 62 -71 125 -99 223 -99 64
-1 89 4 126 22 148 73 214 248 147 393 -31 68 -86 125 -147 152 -49 22 -160
32 -201 18z m142 -220 c27 -24 33 -36 33 -71 0 -35 -6 -47 -33 -71 -36 -32
-69 -36 -112 -14 -36 19 -50 43 -50 87 0 87 96 128 162 69z"/>
</g>
</svg>
