<?xml version="1.0" standalone="no"?>
<!DOCTYPE svg PUBLIC "-//W3C//DTD SVG 20010904//EN"
 "http://www.w3.org/TR/2001/REC-SVG-20010904/DTD/svg10.dtd">
<svg version="1.0" xmlns="http://www.w3.org/2000/svg"
 width="512.000000pt" height="512.000000pt" viewBox="0 0 512.000000 512.000000"
 preserveAspectRatio="xMidYMid meet">

<g transform="translate(0.000000,512.000000) scale(0.100000,-0.100000)"
fill="#000000" stroke="none">
<path d="M425 5015 l-25 -24 0 -351 0 -351 25 -24 c20 -21 34 -25 80 -25 l55
0 0 -145 0 -145 -240 -280 -240 -281 2 -1102 3 -1103 37 -76 c45 -91 103 -147
196 -191 l67 -32 807 -3 807 -3 3 -282 c3 -269 4 -284 26 -327 35 -72 75 -114
144 -151 l63 -34 1285 0 1285 0 63 34 c70 38 100 69 140 145 l27 51 0 725 0
725 -34 63 c-37 69 -79 109 -151 144 l-45 23 -842 3 -843 3 0 694 0 695 -240
280 -240 280 0 145 0 145 55 0 c46 0 60 4 80 25 l25 24 0 351 0 351 -25 24
-24 25 -1151 0 -1151 0 -24 -25z m2215 -375 l0 -240 -1040 0 -1040 0 0 240 0
240 1040 0 1040 0 0 -240z m-160 -520 l0 -120 -880 0 -880 0 0 120 0 120 880
0 880 0 0 -120z m213 -478 l168 -197 -630 -3 c-347 -1 -915 -1 -1262 0 l-630
3 168 197 168 197 925 0 925 0 168 -197z m267 -1001 l0 -640 -362 -3 -363 -3
-50 -25 c-64 -31 -124 -92 -155 -155 -20 -43 -25 -68 -28 -172 l-4 -123 -879
0 -879 0 0 880 0 880 1360 0 1360 0 0 -639z m1846 -827 c15 -11 37 -33 48 -48
21 -27 21 -36 21 -726 0 -690 0 -699 -21 -726 -11 -15 -33 -37 -48 -48 -27
-21 -30 -21 -1286 -21 -1256 0 -1259 0 -1286 21 -15 11 -37 33 -48 48 -21 27
-21 39 -24 699 -2 370 0 686 3 704 7 40 49 91 90 109 24 11 256 13 1277 11
1242 -2 1247 -2 1274 -23z m-2806 -614 l0 -160 -776 0 c-581 0 -787 3 -818 12
-55 16 -138 99 -154 154 -7 23 -12 67 -12 98 l0 56 880 0 880 0 0 -160z"/>
<path d="M1385 2935 c-24 -23 -25 -29 -25 -160 l0 -135 -135 0 c-131 0 -137
-1 -160 -25 -25 -24 -25 -26 -25 -215 0 -189 0 -191 25 -215 23 -24 29 -25
160 -25 l135 0 0 -135 c0 -131 1 -137 25 -160 24 -25 26 -25 215 -25 189 0
191 0 215 25 24 23 25 29 25 160 l0 135 135 0 c131 0 137 1 160 25 25 24 25
26 25 215 0 189 0 191 -25 215 -23 24 -29 25 -160 25 l-135 0 0 135 c0 131 -1
137 -25 160 -24 25 -26 25 -215 25 -189 0 -191 0 -215 -25z m295 -270 c0 -131
1 -137 25 -160 23 -24 29 -25 160 -25 l135 0 0 -80 0 -80 -135 0 c-131 0 -137
-1 -160 -25 -24 -23 -25 -29 -25 -160 l0 -135 -80 0 -80 0 0 135 c0 131 -1
137 -25 160 -23 24 -29 25 -160 25 l-135 0 0 80 0 80 135 0 c131 0 137 1 160
25 24 23 25 29 25 160 l0 135 80 0 80 0 0 -135z"/>
<path d="M2480 1667 c-49 -16 -133 -102 -148 -153 -28 -94 -8 -169 63 -239
101 -102 229 -102 330 0 98 97 101 222 8 325 -65 72 -158 97 -253 67z m135
-172 c50 -49 15 -135 -55 -135 -19 0 -40 9 -55 25 -16 15 -25 36 -25 55 0 19
9 40 25 55 15 16 36 25 55 25 19 0 40 -9 55 -25z"/>
<path d="M3120 1667 c-49 -16 -133 -102 -148 -153 -28 -94 -8 -169 63 -239
101 -102 229 -102 330 0 98 97 101 222 8 325 -65 72 -158 97 -253 67z m135
-172 c50 -49 15 -135 -55 -135 -41 0 -80 39 -80 80 0 41 39 80 80 80 19 0 40
-9 55 -25z"/>
<path d="M3760 1667 c-49 -16 -133 -102 -148 -153 -28 -94 -8 -169 63 -239
101 -102 229 -102 330 0 98 97 101 222 8 325 -65 72 -158 97 -253 67z m135
-172 c50 -49 15 -135 -55 -135 -41 0 -80 39 -80 80 0 41 39 80 80 80 19 0 40
-9 55 -25z"/>
<path d="M4400 1667 c-49 -16 -133 -102 -148 -153 -28 -94 -8 -169 63 -239
101 -102 229 -102 330 0 98 97 101 222 8 325 -65 72 -158 97 -253 67z m135
-172 c50 -49 15 -135 -55 -135 -41 0 -80 39 -80 80 0 41 39 80 80 80 19 0 40
-9 55 -25z"/>
<path d="M2480 867 c-49 -16 -133 -102 -148 -153 -28 -94 -8 -169 63 -239 51
-52 102 -75 165 -75 63 0 114 23 165 75 98 97 101 222 8 325 -65 72 -158 97
-253 67z m135 -172 c50 -49 15 -135 -55 -135 -19 0 -40 9 -55 25 -16 15 -25
36 -25 55 0 19 9 40 25 55 15 16 36 25 55 25 19 0 40 -9 55 -25z"/>
<path d="M3120 867 c-49 -16 -133 -102 -148 -153 -28 -94 -8 -169 63 -239 51
-52 102 -75 165 -75 63 0 114 23 165 75 98 97 101 222 8 325 -65 72 -158 97
-253 67z m135 -172 c50 -49 15 -135 -55 -135 -41 0 -80 39 -80 80 0 41 39 80
80 80 19 0 40 -9 55 -25z"/>
<path d="M3760 867 c-49 -16 -133 -102 -148 -153 -28 -94 -8 -169 63 -239 51
-52 102 -75 165 -75 63 0 114 23 165 75 98 97 101 222 8 325 -65 72 -158 97
-253 67z m135 -172 c50 -49 15 -135 -55 -135 -41 0 -80 39 -80 80 0 41 39 80
80 80 19 0 40 -9 55 -25z"/>
<path d="M4400 867 c-49 -16 -133 -102 -148 -153 -28 -94 -8 -169 63 -239 51
-52 102 -75 165 -75 63 0 114 23 165 75 98 97 101 222 8 325 -65 72 -158 97
-253 67z m135 -172 c50 -49 15 -135 -55 -135 -41 0 -80 39 -80 80 0 41 39 80
80 80 19 0 40 -9 55 -25z"/>
<path d="M3610 4387 c-88 -25 -174 -98 -222 -189 -32 -61 -32 -175 1 -238 32
-63 418 -450 485 -487 43 -24 62 -28 126 -28 64 0 83 4 128 29 61 34 130 105
163 167 33 63 33 175 0 239 -35 68 -422 454 -486 485 -62 30 -136 38 -195 22z
m199 -231 l76 -76 -103 -102 -102 -103 -77 78 c-76 75 -78 78 -78 127 0 45 4
53 45 96 55 56 74 65 124 60 33 -4 51 -16 115 -80z m271 -271 c73 -74 75 -77
75 -126 0 -47 -3 -53 -51 -99 -89 -84 -125 -80 -233 25 l-76 74 100 101 c55
55 102 100 105 100 3 0 39 -34 80 -75z"/>
<path d="M4330 3107 c-26 -7 -62 -23 -80 -34 -58 -36 -435 -423 -461 -473 -33
-64 -33 -176 0 -239 33 -62 102 -133 163 -167 45 -25 64 -29 128 -29 64 0 83
4 126 28 67 37 453 424 485 487 33 64 33 176 0 239 -75 143 -231 224 -361 188z
m174 -206 c48 -48 51 -55 51 -101 0 -49 -2 -51 -78 -127 l-77 -78 -102 102
-103 103 70 71 c81 82 96 90 149 85 31 -4 50 -15 90 -55z m-319 -321 l100
-101 -76 -74 c-108 -105 -144 -109 -233 -25 -48 46 -51 52 -51 99 0 49 2 52
75 126 41 41 77 75 80 75 3 0 50 -45 105 -100z"/>
</g>
</svg>
