<?xml version="1.0" standalone="no"?>
<!DOCTYPE svg PUBLIC "-//W3C//DTD SVG 20010904//EN"
 "http://www.w3.org/TR/2001/REC-SVG-20010904/DTD/svg10.dtd">
<svg version="1.0" xmlns="http://www.w3.org/2000/svg"
 width="512.000000pt" height="512.000000pt" viewBox="0 0 512.000000 512.000000"
 preserveAspectRatio="xMidYMid meet">

<g transform="translate(0.000000,512.000000) scale(0.100000,-0.100000)"
fill="#000000" stroke="none">
<path d="M3355 4066 l-25 -25 0 -584 c0 -545 1 -589 19 -660 23 -89 44 -133
100 -207 61 -81 134 -137 291 -219 l140 -74 0 -348 c0 -222 -4 -367 -11 -401
-46 -212 -234 -358 -464 -358 l-52 0 -6 128 c-7 136 -37 290 -80 402 -149 394
-465 709 -850 845 l-78 28 49 33 c27 18 76 60 109 93 441 441 210 1189 -404
1307 -469 89 -913 -279 -913 -758 0 -132 21 -222 81 -345 56 -115 146 -221
243 -288 53 -36 63 -55 29 -55 -8 0 -64 -20 -123 -45 -296 -126 -564 -378
-709 -670 -99 -198 -138 -362 -148 -616 l-6 -167 26 -26 27 -26 1472 2 c1405
3 1476 4 1528 22 220 74 365 228 421 444 17 67 19 112 19 437 l0 361 137 73
c75 40 161 91 190 114 65 50 137 141 170 216 51 115 53 133 53 757 0 558 -1
583 -19 605 l-19 24 -586 3 -586 2 -25 -24z m1065 -666 c0 -510 -1 -533 -21
-592 -43 -129 -107 -191 -303 -296 l-136 -73 -143 77 c-78 42 -157 89 -175
104 -55 46 -111 128 -132 197 -19 62 -20 92 -20 589 l0 524 465 0 465 0 0
-530z m-2369 470 c274 -51 488 -292 506 -570 11 -175 -49 -332 -177 -461 -88
-89 -175 -141 -285 -169 -141 -36 -272 -24 -402 35 -225 103 -362 315 -363
557 0 100 14 166 56 257 116 254 396 401 665 351z m137 -1405 c308 -59 597
-246 783 -507 65 -92 151 -270 179 -368 27 -99 50 -248 50 -333 l0 -67 -1247
2 -1248 3 3 90 c19 607 487 1119 1093 1195 97 12 283 4 387 -15z"/>
<path d="M3914 3599 c-34 -17 -44 -53 -44 -159 l0 -100 -94 0 c-101 0 -151
-12 -166 -40 -16 -30 -12 -65 11 -94 20 -25 23 -26 135 -26 l114 0 0 -108 c0
-116 10 -145 56 -162 31 -12 78 5 93 33 6 12 12 69 13 127 l3 105 118 5 c134
6 147 13 147 80 0 63 -23 74 -156 78 l-114 4 0 108 c0 88 -3 112 -17 129 -21
25 -70 35 -99 20z"/>
</g>
</svg>
